<svg width="41" height="22" viewBox="0 0 41 22" fill="none" xmlns="http://www.w3.org/2000/svg">
<path fill-rule="evenodd" clip-rule="evenodd" d="M2.96875 22.0006C11.3382 18.5129 23.0817 15.3517 38.6351 18.517L38.7981 14.6811C22.3886 12.939 10.6141 18.0209 2.96875 21.6225V22.0006Z" fill="#E7A83A"/>
<path fill-rule="evenodd" clip-rule="evenodd" d="M11.7218 11.8851L15.3492 0.255197H18.5859L14.9582 11.8851H11.7218ZM10.275 0.258372L7.36352 5.18832C6.62236 6.4795 6.18915 7.13167 5.98082 7.94762H5.93649C5.98805 6.91322 5.83968 5.64336 5.82568 4.92564L5.50421 0.258372H0.0559894L0 0.571186C1.39973 0.571186 2.22977 1.25489 2.45816 2.65336L3.52009 11.8851H6.87315L13.653 0.258372H10.275ZM35.4447 11.8851L35.3554 10.1555L31.3139 10.1523L30.4873 11.8849H26.9735L33.3449 0.2772H37.6579L38.7369 11.8849L35.4447 11.8851ZM35.0735 5.02499C35.0376 4.16549 35.0075 2.99884 35.0677 2.29291H35.0199C34.823 2.87023 33.9768 4.60398 33.6048 5.45667L32.4005 8.00592H35.2382L35.0735 5.02499ZM21.9837 12.2156C19.6987 12.2156 18.1823 11.5108 17.0996 10.8825L18.6414 8.59298C19.6133 9.12152 20.3764 9.7315 22.1321 9.7315C22.6966 9.7315 23.2407 9.58882 23.5495 9.06867C23.9998 8.31215 23.4457 7.9052 22.1813 7.20925L21.557 6.81455C19.6828 5.56919 18.8721 4.38643 19.7544 2.32172C20.319 1.00105 21.8081 0 24.2646 0C25.9587 0 27.5469 0.712509 28.4724 1.40869L26.6999 3.43007C25.7968 2.71983 25.0482 2.36051 24.1916 2.36051C23.5085 2.36051 22.9897 2.61662 22.8105 2.9621C22.4734 3.61154 22.9194 4.05434 23.9044 4.64889L24.6467 5.10802C26.9222 6.50355 27.4644 7.9669 26.894 9.33498C25.9132 11.6898 23.9928 12.2156 21.9837 12.2156ZM39.6222 2.05405H39.409V0.793264H39.901C40.2141 0.793264 40.3739 0.899881 40.3739 1.15576C40.3739 1.38396 40.2295 1.47833 40.0354 1.49965L40.3986 2.05405H40.1576L39.8226 1.51507H39.6222V2.05405ZM39.8599 1.33836C40.02 1.33836 40.1606 1.32317 40.1606 1.14033C40.1606 0.988122 40.0071 0.969747 39.8791 0.969747H39.622V1.33836H39.8599ZM39.8536 2.54131C39.1806 2.54131 38.7014 2.0511 38.7014 1.40233C38.7014 0.717046 39.2335 0.263363 39.8536 0.263363C40.4679 0.263363 41 0.717046 41 1.40233C41 2.0874 40.4679 2.54131 39.8536 2.54131ZM39.8536 0.461396C39.3465 0.461396 38.952 0.847933 38.952 1.40233C38.952 1.91999 39.2965 2.34327 39.8536 2.34327C40.3547 2.34327 40.7494 1.95968 40.7494 1.40233C40.7494 0.847933 40.3547 0.461396 39.8536 0.461396Z" fill="#1D5B99"/>
</svg>
